<?xml version="1.0" encoding="utf-8"?>
<!-- Generator: Adobe Illustrator 23.0.1, SVG Export Plug-In . SVG Version: 6.00 Build 0)  -->
<svg version="1.1" id="Layer_1" xmlns="http://www.w3.org/2000/svg" xmlns:xlink="http://www.w3.org/1999/xlink" x="0px" y="0px"
	 viewBox="0 0 300 300" style="enable-background:new 0 0 300 300;" xml:space="preserve">
<style type="text/css">
	.st0{fill-rule:evenodd;clip-rule:evenodd;}
</style>
<path class="st0" d="M217.51,267.9c-2.83,1.3-5.01,1.96-9.57,1.96c-5.95,0-10.62-1.66-14.03-4.99c-3.41-3.33-5.11-7.76-5.11-13.31
	c0-5.9,1.91-10.69,5.74-14.36c3.83-3.67,8.8-5.51,14.91-5.51c3.78,0,5.46,0.91,8.05,1.82v8c-2.59-1.48-4.03-2.67-7.35-2.67
	c-3.64,0-6.58,1.09-8.81,3.27s-3.35,5.13-3.35,8.85c0,3.57,1.05,6.41,3.16,8.53c2.11,2.12,4.95,3.18,8.51,3.18
	c3.41,0,5.01-0.79,7.84-2.37V267.9z M98.99,269.86c-5.32,0-9.66-1.72-13.02-5.16c-3.35-3.44-5.03-7.92-5.03-13.45
	c0-5.83,1.7-10.55,5.11-14.16c3.41-3.6,7.92-5.41,13.53-5.41c5.31,0,9.6,1.72,12.87,5.17c3.28,3.45,4.91,8,4.91,13.64
	c0,5.8-1.7,10.48-5.09,14.03C108.89,268.08,104.46,269.86,98.99,269.86z M99.34,238.85c-2.69,0-4.83,1.09-6.42,3.28
	c-1.58,2.19-2.38,5.08-2.38,8.69c0,3.65,0.79,6.55,2.38,8.67c1.58,2.13,3.66,3.19,6.23,3.19c2.65,0,4.75-1.03,6.3-3.1
	c1.55-2.07,2.33-4.94,2.33-8.61c0-3.83-0.75-6.8-2.26-8.93C104.01,239.92,101.95,238.85,99.34,238.85z M162.18,269.21h-7.5v-23.29
	l-8.64,14.35h-5.84l-8.29-14.2v23.14h-7.4V232.3h10.24l8.36,16.38l8.63-16.38h10.45V269.21z M181.1,269.21h-8.73V232.3h8.73V269.21z
	 M224.29,267.8v-8.24c1.57,1.25,3.27,2.19,5.11,2.82c1.84,0.63,3.69,0.94,5.57,0.94c1.1,0,2.06-0.09,2.88-0.28s1.5-0.45,2.05-0.79
	c0.55-0.33,0.96-0.73,1.23-1.18c0.27-0.45,0.41-0.95,0.41-1.48c0-0.72-0.22-1.36-0.65-1.93c-0.43-0.57-1.02-1.09-1.77-1.57
	c-0.75-0.48-1.64-0.94-2.66-1.39c-1.03-0.45-2.14-0.9-3.32-1.36c-3.03-1.2-5.28-2.67-6.77-4.4c-1.49-1.73-2.23-3.83-2.23-6.28
	c0-1.92,0.41-3.57,1.22-4.95c0.81-1.38,1.91-2.52,3.31-3.41c1.4-0.89,3.01-1.55,4.85-1.97c1.84-0.42,3.78-0.63,5.84-0.63
	c2.02,0,3.81,0.12,5.37,0.35c1.56,0.23,3,0.59,4.31,1.07v7.7c-0.44-0.29-0.91-0.56-1.4-0.8c-0.23-0.12-10.92-4.84-14.32,1.35
	c-0.48,1.42,0.05,3.48,6.13,4.61c8.2,1.51,13.32,7.52,10.97,15.8c-0.26,0.9-0.57,1.71-0.9,2.28c-0.82,1.4-1.93,2.53-3.34,3.4
	c-1.41,0.87-3.04,1.49-4.91,1.87c-1.87,0.38-3.83,0.57-5.91,0.57c-2.13,0-4.15-0.17-6.07-0.51C227.36,269,225.7,268.48,224.29,267.8
	z M74.75,267.9c-2.83,1.3-5.01,1.96-9.57,1.96c-5.95,0-10.62-1.66-14.03-4.99c-3.41-3.33-5.11-7.76-5.11-13.31
	c0-5.9,1.91-10.69,5.74-14.36c3.83-3.67,8.8-5.51,14.91-5.51c3.78,0,5.46,0.91,8.05,1.82v8c-2.59-1.48-4.03-2.67-7.35-2.67
	c-3.64,0-6.58,1.09-8.81,3.27c-2.23,2.18-3.35,5.13-3.35,8.85c0,3.57,1.05,6.41,3.16,8.53c2.11,2.12,4.95,3.18,8.51,3.18
	c3.41,0,5.01-0.79,7.84-2.37V267.9z"/>
<path class="st0" d="M209.67,128.65l-0.01,45.41c0.18,6.28-0.07,10.82-1.42,14.1c-2.76,6.67-6.56,8.55-12.76,8.55
	c-2.51,0-6.13,0-6.13,0c4.83-2.15,5.1-11.82,5.04-15.13v-21.85l0.02,0l0.01-87.59c-0.2-4.56,1.05-8.22,2.89-11.12
	c2.85-4.5,8.65-9.18,14.11-9.18c1.46,0,3.11,0,3.11,0c-4.83,2.15-4.89,12.89-4.84,16.2l-0.01,37.26c0.16,0,42.25-0.14,42.25-0.14
	l0-74.78l-53.14-0.04c-26.2,1.13-44.66,15.31-44.66,39.88l-0.03,147.81c0,0,27.57,0.41,43.99-0.09
	c33.91-1.03,52.48-11.62,53.76-38.9l0.08-50.42L209.67,128.65z"/>
<path class="st0" d="M101.75,217.3l-53.9-0.31V30.26h64.43c9.11,0.05,11.97,0.09,20.42,3.92c10.04,4.56,12.32,11.56,14.16,24.02
	v128.98c-3.65,17.86-17.85,27.77-37.63,29.64C107.05,217.02,104.52,217.18,101.75,217.3z M90.33,166.2v14.32
	c0.05,3.31,0.65,14.06-4.18,16.2h12.32c0,0,8.43,1.3,7.78-13.62v-17.3l0.02,0V85.96v-2.3V64.43c0.65-14.92-7.78-13.62-7.78-13.62
	H86.17c4.83,2.15,4.24,12.89,4.18,16.2v16.4v2.31v72.76l-0.02,0v3.32V166.2z"/>
</svg>
